<?xml version="1.0" encoding="UTF-8"?>
<svg width="200" height="200" viewBox="0 0 200 200" xmlns="http://www.w3.org/2000/svg">
  <!-- Stem -->
  <path id="stem" d="M100,185 L100,140" stroke="#3A8E3D" stroke-width="4" fill="none" />
  
  <!-- Leaves -->
  <path id="leaf-left" d="M100,160 C85,150 75,165 85,175" stroke="#3A8E3D" stroke-width="3" fill="#4CAF50" />
  <path id="leaf-right" d="M100,170 C115,160 125,175 115,185" stroke="#3A8E3D" stroke-width="3" fill="#4CAF50" />
  
  <!-- Petals -->
  <path id="petal1" d="M100,100 C85,85 85,65 100,55 C115,65 115,85 100,100" stroke="#FF69B4" stroke-width="2" fill="#FF85C2" />
  <path id="petal2" d="M100,100 C85,115 65,115 55,100 C65,85 85,85 100,100" stroke="#FF69B4" stroke-width="2" fill="#FF85C2" />
  <path id="petal3" d="M100,100 C115,115 135,115 145,100 C135,85 115,85 100,100" stroke="#FF69B4" stroke-width="2" fill="#FF85C2" />
  <path id="petal4" d="M100,100 C85,115 65,135 55,145 C65,155 85,135 100,120" stroke="#FF69B4" stroke-width="2" fill="#FF85C2" />
  <path id="petal5" d="M100,100 C115,115 135,135 145,145 C135,155 115,135 100,120" stroke="#FF69B4" stroke-width="2" fill="#FF85C2" />
  <path id="petal6" d="M100,100 C115,85 135,65 145,55 C135,45 115,65 100,80" stroke="#FF69B4" stroke-width="2" fill="#FF85C2" />
  <path id="petal7" d="M100,100 C85,85 65,65 55,55 C65,45 85,65 100,80" stroke="#FF69B4" stroke-width="2" fill="#FF85C2" />
  
  <!-- Center -->
  <circle id="center" cx="100" cy="100" r="15" fill="#FFEB3B" stroke="#FFC107" stroke-width="2" />
</svg> 